<svg width="315" height="315" viewBox="0 0 315 315" fill="none" xmlns="http://www.w3.org/2000/svg">
<path d="M16.6471 141.503C-19.8313 163.998 12.5939 216.233 33.3664 239.538H284.915C329.753 239.538 326.714 95.9048 260.596 77.6656C194.479 59.4264 168.64 141.503 149.641 120.984C130.642 100.465 62.2451 113.384 16.6471 141.503Z" fill="#FFEED0"/>
<path fillRule="evenodd" clip-rule="evenodd" d="M157.842 259.602C154.036 263.869 143.658 272.403 132.587 272.403C124.413 272.403 119.383 265.111 116.799 258.603C115.398 255.073 112.195 252.337 108.397 252.337H107.26C98.485 252.337 90.5508 247.119 87.0753 239.062C86.1232 236.855 87.5181 234.33 89.8357 233.692C102.079 230.321 120.402 219.856 121.862 196.984L136.047 82.818L152.653 78.6665H157.842H163.031L179.637 82.818L193.822 196.984C195.281 219.856 213.605 230.321 225.848 233.692C228.166 234.33 229.561 236.855 228.609 239.062C225.133 247.119 217.199 252.337 208.424 252.337H207.287C203.489 252.337 200.286 255.073 198.885 258.603C196.301 265.111 191.27 272.403 183.097 272.403C172.026 272.403 161.647 263.869 157.842 259.602Z" fill="#29FF82"/>
<path d="M157.842 259.602L158.961 258.604L157.842 257.349L156.722 258.604L157.842 259.602ZM116.799 258.603L118.193 258.049L118.193 258.049L116.799 258.603ZM87.0753 239.062L88.4526 238.468L88.4526 238.468L87.0753 239.062ZM89.8357 233.692L90.2338 235.138L90.2338 235.138L89.8357 233.692ZM121.862 196.984L120.374 196.799L120.368 196.844L120.365 196.889L121.862 196.984ZM136.047 82.818L135.683 81.3628L134.685 81.6123L134.558 82.6331L136.047 82.818ZM152.653 78.6665V77.1665H152.468L152.289 77.2113L152.653 78.6665ZM163.031 78.6665L163.395 77.2113L163.216 77.1665H163.031V78.6665ZM179.637 82.818L181.126 82.6331L180.999 81.6123L180.001 81.3628L179.637 82.818ZM193.822 196.984L195.319 196.889L195.316 196.844L195.31 196.799L193.822 196.984ZM225.848 233.692L225.45 235.138L225.45 235.138L225.848 233.692ZM228.609 239.062L227.231 238.468L227.231 238.468L228.609 239.062ZM198.885 258.603L197.49 258.049L197.49 258.049L198.885 258.603ZM132.587 273.903C138.494 273.903 144.126 271.634 148.709 268.89C153.3 266.141 156.962 262.842 158.961 260.601L156.722 258.604C154.916 260.629 151.486 263.73 147.168 266.316C142.843 268.905 137.751 270.903 132.587 270.903V273.903ZM115.405 259.156C116.741 262.522 118.738 266.169 121.529 268.997C124.34 271.845 128.006 273.903 132.587 273.903V270.903C128.995 270.903 126.058 269.315 123.664 266.89C121.251 264.444 119.441 261.192 118.193 258.049L115.405 259.156ZM108.397 253.837C111.434 253.837 114.172 256.05 115.405 259.156L118.193 258.049C116.624 254.097 112.955 250.837 108.397 250.837V253.837ZM107.26 253.837H108.397V250.837H107.26V253.837ZM85.698 239.656C89.4107 248.263 97.8862 253.837 107.26 253.837V250.837C99.0837 250.837 91.691 245.975 88.4526 238.468L85.698 239.656ZM89.4375 232.246C86.3523 233.095 84.3411 236.511 85.698 239.656L88.4526 238.468C87.9052 237.199 88.684 235.565 90.2338 235.138L89.4375 232.246ZM120.365 196.889C118.965 218.823 101.413 228.949 89.4375 232.246L90.2338 235.138C102.745 231.693 121.84 220.889 123.359 197.08L120.365 196.889ZM134.558 82.6331L120.374 196.799L123.351 197.169L137.535 83.0029L134.558 82.6331ZM152.289 77.2113L135.683 81.3628L136.41 84.2732L153.016 80.1217L152.289 77.2113ZM157.842 77.1665H152.653V80.1665H157.842V77.1665ZM157.842 80.1665H163.031V77.1665H157.842V80.1665ZM162.667 80.1217L179.273 84.2732L180.001 81.3628L163.395 77.2113L162.667 80.1217ZM178.149 83.0029L192.333 197.169L195.31 196.799L181.126 82.6331L178.149 83.0029ZM192.325 197.08C193.844 220.889 212.939 231.693 225.45 235.138L226.246 232.246C214.271 228.949 196.719 218.823 195.319 196.889L192.325 197.08ZM225.45 235.138C227 235.565 227.779 237.199 227.231 238.468L229.986 239.656C231.343 236.511 229.332 233.095 226.246 232.246L225.45 235.138ZM227.231 238.468C223.993 245.975 216.6 250.837 208.424 250.837V253.837C217.798 253.837 226.273 248.263 229.986 239.656L227.231 238.468ZM208.424 250.837H207.287V253.837H208.424V250.837ZM207.287 250.837C202.729 250.837 199.059 254.097 197.49 258.049L200.279 259.156C201.512 256.05 204.25 253.837 207.287 253.837V250.837ZM197.49 258.049C196.243 261.192 194.433 264.444 192.019 266.89C189.626 269.315 186.689 270.903 183.097 270.903V273.903C187.678 273.903 191.344 271.845 194.155 268.997C196.946 266.169 198.943 262.522 200.279 259.156L197.49 258.049ZM183.097 270.903C177.933 270.903 172.841 268.905 168.515 266.316C164.197 263.73 160.768 260.629 158.961 258.604L156.722 260.601C158.722 262.842 162.384 266.141 166.974 268.89C171.558 271.634 177.19 273.903 183.097 273.903V270.903Z" fill="#00D558"/>
<path fillRule="evenodd" clip-rule="evenodd" d="M149.994 46.378L157.951 46.3779V46.3781L166.254 46.3781C166.254 46.3781 168.038 46.3781 169.349 47.1166C170.223 48.4316 170.223 50.2302 170.223 53.8299L169.417 60.3027C169.381 60.5899 169.605 60.8435 169.894 60.8435C170.559 60.8435 171.097 61.3821 171.097 62.0465V63.7393C171.097 64.673 170.647 65.5495 169.888 66.0933L168.038 67.4186L166.028 70.0112C165.348 70.8879 164.979 71.9657 164.979 73.075V73.9875C164.979 76.3038 166.57 78.3168 168.824 78.8521L179.788 81.4569C180.948 81.7325 181.971 82.4136 182.673 83.3773L197.793 104.131C198.057 104.494 198.272 104.891 198.43 105.311L203.987 120.043C204.2 120.607 204.309 121.205 204.309 121.808V139.019C204.309 139.5 204.24 139.98 204.102 140.442L198.49 159.34C198.293 160.004 197.96 160.62 197.512 161.149L194.408 164.812C192.533 167.024 189.095 166.94 187.331 164.64C186.722 163.846 186.392 162.874 186.392 161.873V158.456C186.392 157.682 186.572 156.918 186.917 156.225L187.434 155.189C187.894 154.267 188.627 153.509 189.533 153.02L190.697 152.391C192.568 151.381 193.595 149.297 193.258 147.198L191.7 137.509C191.657 137.247 191.636 136.982 191.636 136.716V126.595L192.005 123.453C192.327 120.704 191.496 117.943 189.708 115.83L185.703 111.096C183.255 108.201 178.601 108.979 177.226 112.512L174.643 119.152C173.744 121.464 173.282 123.923 173.282 126.403V133.942C173.282 136.044 173.614 138.133 174.265 140.133L178.801 154.068C179.777 157.066 180.274 160.2 180.274 163.354V172.074C180.274 173.313 180.159 174.549 179.931 175.766L175.027 201.872C174.738 203.409 174.57 204.967 174.524 206.531L173.719 233.989L170.65 252.463C170.084 255.869 170.409 259.364 171.595 262.607L173.991 269.163C174.389 270.252 174.593 271.403 174.593 272.563V272.887C174.593 274.117 174.324 275.333 173.805 276.448L172.563 279.118C171.936 280.467 170.583 281.33 169.095 281.33C167.644 281.33 166.318 280.509 165.671 279.211L161.483 270.81L159.735 233.989V216.455L162.357 204.182L160.609 182.703L157.951 160.591L155.293 182.703L153.545 204.181L156.167 216.455V233.989L154.419 270.81L150.231 279.211C149.584 280.509 148.258 281.33 146.807 281.33C145.32 281.33 143.967 280.467 143.339 279.118L142.097 276.448C141.578 275.333 141.309 274.117 141.309 272.887V272.563C141.309 271.403 141.513 270.252 141.911 269.162L144.307 262.607C145.493 259.364 145.818 255.869 145.252 252.462L142.183 233.989L141.378 206.53C141.332 204.967 141.164 203.409 140.875 201.872L135.972 175.766C135.743 174.548 135.628 173.312 135.628 172.074V163.354C135.628 160.2 136.125 157.066 137.101 154.068L141.638 140.132C142.288 138.133 142.62 136.044 142.62 133.942V126.403C142.62 123.922 142.158 121.463 141.259 119.152L138.676 112.512C137.301 108.979 132.647 108.201 130.199 111.096L126.195 115.83C124.407 117.943 123.575 120.703 123.898 123.453L124.266 126.595V136.716C124.266 136.981 124.245 137.247 124.203 137.509L122.645 147.198C122.307 149.297 123.334 151.38 125.205 152.391L126.369 153.02C127.276 153.509 128.009 154.267 128.468 155.189L128.985 156.225C129.33 156.918 129.51 157.682 129.51 158.456V161.873C129.51 162.873 129.18 163.846 128.571 164.64C126.807 166.94 123.369 167.024 121.495 164.812L118.39 161.149C117.942 160.62 117.609 160.004 117.412 159.34L111.8 140.442C111.663 139.98 111.593 139.5 111.593 139.018V121.808C111.593 121.205 111.702 120.607 111.915 120.043L117.472 105.31C117.631 104.89 117.845 104.494 118.109 104.131L133.229 83.3771C133.931 82.4134 134.955 81.7323 136.115 81.4567L147.079 78.852C149.332 78.3166 150.923 76.3036 150.923 73.9874V73.0749C150.923 71.9655 150.554 70.8877 149.874 70.011L147.864 67.4184L146.014 66.0931C145.255 65.5493 144.805 64.6729 144.805 63.7391V62.0464C144.805 61.3819 145.344 60.8433 146.008 60.8433C146.297 60.8433 146.521 60.5897 146.486 60.3025L145.679 53.8298C145.679 51.6139 145.679 49.8153 146.553 48.5003C147.016 47.8037 148.61 46.378 149.994 46.378Z" fill="#FFD182"/>
<path d="M157.951 46.3779H159.451V44.8779L157.951 44.8779L157.951 46.3779ZM149.994 46.378L149.994 44.878L149.994 44.878L149.994 46.378ZM157.951 46.3781H156.451V47.8781L157.951 47.8781L157.951 46.3781ZM166.254 46.3781L166.254 47.8781H166.254V46.3781ZM169.349 47.1166L170.599 46.2863L170.399 45.9864L170.085 45.8096L169.349 47.1166ZM170.223 53.8299L171.712 54.0154L171.723 53.923V53.8299H170.223ZM169.417 60.3027L170.905 60.4882L170.905 60.4882L169.417 60.3027ZM169.888 66.0933L170.762 67.3126L170.762 67.3126L169.888 66.0933ZM168.038 67.4186L167.165 66.1992L166.987 66.3266L166.853 66.4994L168.038 67.4186ZM166.028 70.0112L167.213 70.9304L167.213 70.9304L166.028 70.0112ZM168.824 78.8521L168.477 80.3115L168.477 80.3115L168.824 78.8521ZM179.788 81.4569L180.134 79.9975L180.134 79.9975L179.788 81.4569ZM182.673 83.3773L181.461 84.2605L181.461 84.2606L182.673 83.3773ZM197.793 104.131L196.581 105.014L196.581 105.014L197.793 104.131ZM198.43 105.311L197.026 105.84L197.026 105.84L198.43 105.311ZM203.987 120.043L205.391 119.514L205.391 119.514L203.987 120.043ZM204.102 140.442L202.664 140.015L202.664 140.015L204.102 140.442ZM198.49 159.34L197.052 158.913L197.052 158.913L198.49 159.34ZM197.512 161.149L198.656 162.119L198.656 162.119L197.512 161.149ZM194.408 164.812L195.552 165.782L195.552 165.782L194.408 164.812ZM187.331 164.64L186.141 165.553L186.141 165.553L187.331 164.64ZM186.917 156.225L188.26 156.895L188.26 156.895L186.917 156.225ZM187.434 155.189L186.092 154.52L186.092 154.52L187.434 155.189ZM189.533 153.02L188.82 151.7L188.82 151.7L189.533 153.02ZM190.697 152.391L191.41 153.711L191.41 153.711L190.697 152.391ZM193.258 147.198L194.738 146.96L194.738 146.96L193.258 147.198ZM191.7 137.509L193.181 137.271L193.181 137.271L191.7 137.509ZM191.636 126.595L190.146 126.42L190.136 126.507V126.595H191.636ZM192.005 123.453L193.495 123.628L193.495 123.628L192.005 123.453ZM189.708 115.83L190.853 114.861L190.853 114.861L189.708 115.83ZM185.703 111.096L186.849 110.127L186.849 110.127L185.703 111.096ZM177.226 112.512L175.828 111.968L175.828 111.968L177.226 112.512ZM174.643 119.152L173.245 118.608L173.245 118.608L174.643 119.152ZM174.265 140.133L172.838 140.597L174.265 140.133ZM178.801 154.068L180.227 153.603L180.227 153.603L178.801 154.068ZM179.931 175.766L178.456 175.489L178.456 175.489L179.931 175.766ZM175.027 201.872L173.553 201.595L175.027 201.872ZM174.524 206.531L173.025 206.487L173.025 206.487L174.524 206.531ZM173.719 233.989L175.199 234.235L175.216 234.134L175.219 234.033L173.719 233.989ZM170.65 252.463L172.129 252.709L172.129 252.709L170.65 252.463ZM171.595 262.607L173.004 262.092L173.004 262.092L171.595 262.607ZM173.991 269.163L172.582 269.678L172.582 269.678L173.991 269.163ZM173.805 276.448L175.165 277.081L175.165 277.081L173.805 276.448ZM172.563 279.118L171.203 278.485L171.203 278.485L172.563 279.118ZM165.671 279.211L167.014 278.542L167.014 278.542L165.671 279.211ZM161.483 270.81L159.985 270.881L160 271.196L160.141 271.479L161.483 270.81ZM159.735 233.989H158.235V234.024L158.237 234.06L159.735 233.989ZM159.735 216.455L158.268 216.142L158.235 216.297V216.455H159.735ZM162.357 204.182L163.824 204.495L163.87 204.28L163.852 204.06L162.357 204.182ZM160.609 182.703L162.104 182.581L162.102 182.552L162.099 182.524L160.609 182.703ZM157.951 160.591L159.44 160.412L156.462 160.412L157.951 160.591ZM155.293 182.703L153.804 182.524L153.8 182.552L153.798 182.581L155.293 182.703ZM153.545 204.181L152.05 204.06L152.032 204.279L152.078 204.495L153.545 204.181ZM156.167 216.455H157.667V216.297L157.634 216.142L156.167 216.455ZM156.167 233.989L157.665 234.06L157.667 234.024V233.989H156.167ZM154.419 270.81L155.761 271.479L155.902 271.196L155.917 270.881L154.419 270.81ZM150.231 279.211L148.889 278.542L148.889 278.542L150.231 279.211ZM143.339 279.118L144.699 278.485L144.699 278.485L143.339 279.118ZM142.097 276.448L140.737 277.081L140.737 277.081L142.097 276.448ZM141.911 269.162L140.502 268.647L140.502 268.647L141.911 269.162ZM144.307 262.607L142.898 262.092L142.898 262.092L144.307 262.607ZM145.252 252.462L143.773 252.708L143.773 252.708L145.252 252.462ZM142.183 233.989L140.684 234.033L140.687 234.134L140.703 234.235L142.183 233.989ZM141.378 206.53L142.877 206.487L142.877 206.487L141.378 206.53ZM140.875 201.872L142.349 201.595L142.349 201.595L140.875 201.872ZM135.972 175.766L134.497 176.043L134.497 176.043L135.972 175.766ZM137.101 154.068L135.675 153.603L135.675 153.603L137.101 154.068ZM141.638 140.132L140.211 139.668L140.211 139.668L141.638 140.132ZM141.259 119.152L139.861 119.695L139.861 119.695L141.259 119.152ZM138.676 112.512L140.074 111.968L140.074 111.968L138.676 112.512ZM130.199 111.096L129.054 110.127L129.054 110.127L130.199 111.096ZM126.195 115.83L127.34 116.798L127.34 116.798L126.195 115.83ZM123.898 123.453L122.408 123.628L122.408 123.628L123.898 123.453ZM124.266 126.595H125.766V126.507L125.756 126.42L124.266 126.595ZM124.203 137.509L122.722 137.271L122.722 137.271L124.203 137.509ZM122.645 147.198L121.164 146.96L122.645 147.198ZM125.205 152.391L124.492 153.711L124.492 153.711L125.205 152.391ZM126.369 153.02L125.657 154.34L125.657 154.34L126.369 153.02ZM128.468 155.189L127.126 155.858L127.126 155.858L128.468 155.189ZM128.985 156.225L127.642 156.894L127.642 156.894L128.985 156.225ZM128.571 164.64L129.762 165.552L129.762 165.552L128.571 164.64ZM121.495 164.812L120.35 165.782L120.35 165.782L121.495 164.812ZM118.39 161.149L117.246 162.119L117.246 162.119L118.39 161.149ZM117.412 159.34L118.85 158.913L118.85 158.913L117.412 159.34ZM111.8 140.442L113.238 140.015L113.238 140.015L111.8 140.442ZM111.915 120.043L113.318 120.573L113.318 120.573L111.915 120.043ZM117.472 105.31L118.876 105.84L118.876 105.84L117.472 105.31ZM118.109 104.131L119.322 105.014L119.322 105.014L118.109 104.131ZM133.229 83.3771L134.441 84.2604L134.441 84.2604L133.229 83.3771ZM136.115 81.4567L135.768 79.9973L135.768 79.9973L136.115 81.4567ZM147.079 78.852L146.732 77.3926L146.732 77.3926L147.079 78.852ZM149.874 70.011L148.689 70.9302L148.689 70.9302L149.874 70.011ZM147.864 67.4184L149.049 66.4992L148.915 66.3264L148.738 66.1991L147.864 67.4184ZM146.014 66.0931L145.141 67.3125L145.141 67.3125L146.014 66.0931ZM146.486 60.3025L144.997 60.488L144.997 60.488L146.486 60.3025ZM145.679 53.8298H144.179V53.9229L144.19 54.0153L145.679 53.8298ZM146.553 48.5003L147.802 49.3306L147.802 49.3306L146.553 48.5003ZM157.951 44.8779L149.994 44.878L149.994 47.878L157.951 47.8779L157.951 44.8779ZM159.451 46.3781V46.3779H156.451V46.3781H159.451ZM157.951 47.8781L166.254 47.8781L166.254 44.8781L157.951 44.8781L157.951 47.8781ZM166.254 46.3781C166.254 47.8781 166.254 47.8781 166.254 47.8781C166.253 47.8781 166.253 47.8781 166.253 47.8781C166.253 47.8781 166.252 47.8781 166.252 47.8781C166.251 47.8781 166.251 47.8781 166.251 47.8781C166.25 47.8781 166.249 47.8781 166.249 47.8781C166.249 47.8781 166.251 47.8781 166.254 47.8782C166.261 47.8782 166.273 47.8785 166.291 47.879C166.327 47.88 166.386 47.8822 166.461 47.8868C166.614 47.8962 166.833 47.9153 167.086 47.9535C167.616 48.0338 168.185 48.1825 168.613 48.4235L170.085 45.8096C169.202 45.3122 168.224 45.0917 167.535 44.9873C167.177 44.9333 166.868 44.9062 166.645 44.8925C166.533 44.8856 166.442 44.882 166.375 44.8801C166.342 44.8792 166.315 44.8787 166.295 44.8784C166.284 44.8783 166.276 44.8782 166.269 44.8782C166.266 44.8781 166.263 44.8781 166.26 44.8781C166.259 44.8781 166.258 44.8781 166.257 44.8781C166.256 44.8781 166.256 44.8781 166.255 44.8781C166.255 44.8781 166.255 44.8781 166.255 44.8781C166.254 44.8781 166.254 44.8781 166.254 46.3781ZM168.1 47.9468C168.348 48.3205 168.525 48.8274 168.622 49.7697C168.721 50.7393 168.723 51.9987 168.723 53.8299H171.723C171.723 52.0614 171.725 50.6216 171.606 49.4633C171.484 48.2776 171.224 47.2277 170.599 46.2863L168.1 47.9468ZM168.735 53.6444L167.928 60.1172L170.905 60.4882L171.712 54.0154L168.735 53.6444ZM167.928 60.1172C167.781 61.2995 168.703 62.3435 169.894 62.3435V59.3435C170.507 59.3435 170.981 59.8803 170.905 60.4882L167.928 60.1172ZM169.894 62.3435C169.73 62.3435 169.597 62.2105 169.597 62.0465H172.597C172.597 60.5537 171.387 59.3435 169.894 59.3435V62.3435ZM169.597 62.0465V63.7393H172.597V62.0465H169.597ZM169.597 63.7393C169.597 64.1894 169.38 64.6118 169.014 64.8739L170.762 67.3126C171.914 66.4871 172.597 65.1567 172.597 63.7393H169.597ZM169.014 64.8739L167.165 66.1992L168.912 68.6379L170.762 67.3126L169.014 64.8739ZM166.853 66.4994L164.843 69.0921L167.213 70.9304L169.224 68.3377L166.853 66.4994ZM164.843 69.0921C163.959 70.2317 163.479 71.6329 163.479 73.075H166.479C166.479 72.2985 166.738 71.544 167.213 70.9304L164.843 69.0921ZM163.479 73.075V73.9875H166.479V73.075H163.479ZM163.479 73.9875C163.479 76.9986 165.547 79.6155 168.477 80.3115L169.17 77.3928C167.593 77.018 166.479 75.6089 166.479 73.9875H163.479ZM168.477 80.3115L179.441 82.9162L180.134 79.9975L169.17 77.3928L168.477 80.3115ZM179.441 82.9162C180.253 83.1092 180.969 83.5859 181.461 84.2605L183.886 82.494C182.973 81.2412 181.642 80.3558 180.134 79.9975L179.441 82.9162ZM181.461 84.2606L196.581 105.014L199.005 103.248L183.886 82.494L181.461 84.2606ZM196.581 105.014C196.766 105.268 196.916 105.546 197.026 105.84L199.833 104.781C199.627 104.235 199.349 103.719 199.005 103.248L196.581 105.014ZM197.026 105.84L202.584 120.573L205.391 119.514L199.833 104.781L197.026 105.84ZM202.584 120.573C202.733 120.968 202.809 121.386 202.809 121.808H205.809C205.809 121.024 205.667 120.247 205.391 119.514L202.584 120.573ZM202.809 121.808V139.019H205.809V121.808H202.809ZM202.809 139.019C202.809 139.356 202.76 139.691 202.664 140.015L205.54 140.869C205.719 140.268 205.809 139.645 205.809 139.019H202.809ZM202.664 140.015L197.052 158.913L199.928 159.767L205.54 140.869L202.664 140.015ZM197.052 158.913C196.914 159.378 196.681 159.809 196.367 160.179L198.656 162.119C199.239 161.431 199.672 160.631 199.928 159.767L197.052 158.913ZM196.367 160.179L193.263 163.843L195.552 165.782L198.656 162.119L196.367 160.179ZM193.263 163.843C192.007 165.325 189.703 165.269 188.521 163.727L186.141 165.553C188.487 168.612 193.059 168.724 195.552 165.782L193.263 163.843ZM188.521 163.727C188.113 163.195 187.892 162.543 187.892 161.873H184.892C184.892 163.204 185.331 164.497 186.141 165.553L188.521 163.727ZM187.892 161.873V158.456H184.892V161.873H187.892ZM187.892 158.456C187.892 157.914 188.018 157.38 188.26 156.895L185.575 155.556C185.126 156.457 184.892 157.45 184.892 158.456H187.892ZM188.26 156.895L188.777 155.858L186.092 154.52L185.575 155.556L188.26 156.895ZM188.777 155.858C189.098 155.213 189.611 154.682 190.246 154.34L188.82 151.7C187.642 152.337 186.689 153.321 186.092 154.52L188.777 155.858ZM190.246 154.34L191.41 153.711L189.984 151.071L188.82 151.7L190.246 154.34ZM191.41 153.711C193.842 152.397 195.177 149.689 194.738 146.96L191.777 147.436C192.013 148.906 191.294 150.364 189.984 151.071L191.41 153.711ZM194.738 146.96L193.181 137.271L190.219 137.748L191.777 147.436L194.738 146.96ZM193.181 137.271C193.151 137.088 193.136 136.902 193.136 136.716H190.136C190.136 137.061 190.164 137.406 190.219 137.748L193.181 137.271ZM193.136 136.716V126.595H190.136V136.716H193.136ZM193.126 126.77L193.495 123.628L190.515 123.278L190.146 126.42L193.126 126.77ZM193.495 123.628C193.865 120.466 192.909 117.292 190.853 114.861L188.562 116.799C190.082 118.595 190.789 120.941 190.515 123.278L193.495 123.628ZM190.853 114.861L186.849 110.127L184.558 112.065L188.562 116.799L190.853 114.861ZM186.849 110.127C183.665 106.364 177.615 107.375 175.828 111.968L178.624 113.056C179.586 110.583 182.844 110.038 184.558 112.065L186.849 110.127ZM175.828 111.968L173.245 118.608L176.041 119.696L178.624 113.056L175.828 111.968ZM173.245 118.608C172.278 121.093 171.782 123.737 171.782 126.403H174.782C174.782 124.109 175.209 121.834 176.041 119.696L173.245 118.608ZM171.782 126.403V133.942H174.782V126.403H171.782ZM171.782 133.942C171.782 136.202 172.139 138.448 172.838 140.597L175.691 139.668C175.089 137.819 174.782 135.887 174.782 133.942H171.782ZM172.838 140.597L177.374 154.532L180.227 153.603L175.691 139.668L172.838 140.597ZM177.374 154.532C178.302 157.381 178.774 160.358 178.774 163.354H181.774C181.774 160.043 181.252 156.752 180.227 153.603L177.374 154.532ZM178.774 163.354V172.074H181.774V163.354H178.774ZM178.774 172.074C178.774 173.22 178.668 174.363 178.456 175.489L181.405 176.043C181.651 174.734 181.774 173.405 181.774 172.074H178.774ZM178.456 175.489L173.553 201.595L176.501 202.149L181.405 176.043L178.456 175.489ZM173.553 201.595C173.25 203.209 173.073 204.845 173.025 206.487L176.024 206.575C176.067 205.089 176.227 203.609 176.501 202.149L173.553 201.595ZM173.025 206.487L172.22 233.945L175.219 234.033L176.024 206.575L173.025 206.487ZM172.24 233.743L169.17 252.217L172.129 252.709L175.199 234.235L172.24 233.743ZM169.17 252.217C168.562 255.879 168.912 259.636 170.186 263.122L173.004 262.092C171.907 259.092 171.606 255.859 172.129 252.709L169.17 252.217ZM170.186 263.122L172.582 269.678L175.4 268.648L173.004 262.092L170.186 263.122ZM172.582 269.678C172.92 270.602 173.093 271.579 173.093 272.563H176.093C176.093 271.228 175.859 269.902 175.4 268.648L172.582 269.678ZM173.093 272.563V272.887H176.093V272.563H173.093ZM173.093 272.887C173.093 273.899 172.872 274.898 172.445 275.816L175.165 277.081C175.777 275.767 176.093 274.336 176.093 272.887H173.093ZM172.445 275.816L171.203 278.485L173.923 279.751L175.165 277.081L172.445 275.816ZM171.203 278.485C170.822 279.306 169.999 279.83 169.095 279.83V282.83C171.166 282.83 173.05 281.629 173.923 279.751L171.203 278.485ZM169.095 279.83C168.213 279.83 167.407 279.331 167.014 278.542L164.329 279.88C165.23 281.688 167.075 282.83 169.095 282.83V279.83ZM167.014 278.542L162.826 270.141L160.141 271.479L164.329 279.88L167.014 278.542ZM162.982 270.739L161.234 233.918L158.237 234.06L159.985 270.881L162.982 270.739ZM161.235 233.989V216.455H158.235V233.989H161.235ZM161.202 216.769L163.824 204.495L160.89 203.868L158.268 216.142L161.202 216.769ZM163.852 204.06L162.104 182.581L159.114 182.825L160.862 204.303L163.852 204.06ZM162.099 182.524L159.44 160.412L156.462 160.77L159.12 182.882L162.099 182.524ZM156.782 182.882L159.44 160.77L156.462 160.412L153.804 182.524L156.782 182.882ZM155.04 204.303L156.788 182.824L153.798 182.581L152.05 204.06L155.04 204.303ZM157.634 216.142L155.012 203.868L152.078 204.495L154.7 216.768L157.634 216.142ZM157.667 233.989V216.455H154.667V233.989H157.667ZM155.917 270.881L157.665 234.06L154.669 233.918L152.921 270.738L155.917 270.881ZM151.574 279.88L155.761 271.479L153.076 270.14L148.889 278.542L151.574 279.88ZM146.807 282.83C148.827 282.83 150.673 281.687 151.574 279.88L148.889 278.542C148.495 279.331 147.689 279.83 146.807 279.83V282.83ZM141.979 279.751C142.853 281.629 144.736 282.83 146.807 282.83V279.83C145.903 279.83 145.081 279.305 144.699 278.485L141.979 279.751ZM140.737 277.081L141.979 279.751L144.699 278.485L143.457 275.815L140.737 277.081ZM139.809 272.887C139.809 274.336 140.126 275.767 140.737 277.081L143.457 275.815C143.03 274.898 142.809 273.899 142.809 272.887H139.809ZM139.809 272.563V272.887H142.809V272.563H139.809ZM140.502 268.647C140.044 269.902 139.809 271.227 139.809 272.563H142.809C142.809 271.579 142.982 270.602 143.32 269.677L140.502 268.647ZM142.898 262.092L140.502 268.647L143.32 269.677L145.716 263.122L142.898 262.092ZM143.773 252.708C144.296 255.859 143.995 259.092 142.898 262.092L145.716 263.122C146.991 259.636 147.341 255.879 146.732 252.217L143.773 252.708ZM140.703 234.235L143.773 252.708L146.732 252.217L143.663 233.743L140.703 234.235ZM139.878 206.574L140.684 234.033L143.682 233.945L142.877 206.487L139.878 206.574ZM139.401 202.149C139.675 203.609 139.835 205.089 139.878 206.574L142.877 206.487C142.829 204.845 142.653 203.209 142.349 201.595L139.401 202.149ZM134.497 176.043L139.401 202.149L142.349 201.595L137.446 175.489L134.497 176.043ZM134.128 172.074C134.128 173.405 134.252 174.734 134.497 176.043L137.446 175.489C137.234 174.363 137.128 173.22 137.128 172.074H134.128ZM134.128 163.354V172.074H137.128V163.354H134.128ZM135.675 153.603C134.65 156.752 134.128 160.042 134.128 163.354H137.128C137.128 160.358 137.6 157.381 138.528 154.532L135.675 153.603ZM140.211 139.668L135.675 153.603L138.528 154.532L143.064 140.597L140.211 139.668ZM141.12 133.942C141.12 135.886 140.813 137.819 140.211 139.668L143.064 140.597C143.764 138.448 144.12 136.202 144.12 133.942H141.12ZM141.12 126.403V133.942H144.12V126.403H141.12ZM139.861 119.695C140.693 121.834 141.12 124.108 141.12 126.403H144.12C144.12 123.736 143.624 121.093 142.657 118.608L139.861 119.695ZM137.278 113.056L139.861 119.695L142.657 118.608L140.074 111.968L137.278 113.056ZM131.344 112.065C133.058 110.038 136.316 110.583 137.278 113.056L140.074 111.968C138.287 107.375 132.237 106.364 129.054 110.127L131.344 112.065ZM127.34 116.798L131.344 112.065L129.054 110.127L125.049 114.861L127.34 116.798ZM125.387 123.278C125.113 120.941 125.82 118.595 127.34 116.798L125.049 114.861C122.993 117.292 122.037 120.466 122.408 123.628L125.387 123.278ZM125.756 126.42L125.387 123.278L122.408 123.628L122.776 126.769L125.756 126.42ZM125.766 136.716V126.595H122.766V136.716H125.766ZM125.684 137.747C125.738 137.406 125.766 137.061 125.766 136.716H122.766C122.766 136.902 122.751 137.087 122.722 137.271L125.684 137.747ZM124.126 147.436L125.684 137.747L122.722 137.271L121.164 146.96L124.126 147.436ZM125.918 151.071C124.608 150.364 123.889 148.906 124.126 147.436L121.164 146.96C120.725 149.689 122.06 152.397 124.492 153.711L125.918 151.071ZM127.082 151.7L125.918 151.071L124.492 153.711L125.657 154.34L127.082 151.7ZM129.811 154.519C129.213 153.321 128.26 152.336 127.082 151.7L125.657 154.34C126.291 154.682 126.804 155.212 127.126 155.858L129.811 154.519ZM130.327 155.556L129.811 154.519L127.126 155.858L127.642 156.894L130.327 155.556ZM131.01 158.456C131.01 157.449 130.776 156.457 130.327 155.556L127.642 156.894C127.884 157.379 128.01 157.914 128.01 158.456H131.01ZM131.01 161.873V158.456H128.01V161.873H131.01ZM129.762 165.552C130.571 164.497 131.01 163.203 131.01 161.873H128.01C128.01 162.543 127.789 163.195 127.381 163.727L129.762 165.552ZM120.35 165.782C122.843 168.724 127.415 168.612 129.762 165.552L127.381 163.727C126.199 165.268 123.895 165.325 122.639 163.843L120.35 165.782ZM117.246 162.119L120.35 165.782L122.639 163.843L119.535 160.179L117.246 162.119ZM115.974 159.767C116.23 160.63 116.664 161.431 117.246 162.119L119.535 160.179C119.221 159.809 118.988 159.378 118.85 158.913L115.974 159.767ZM110.362 140.869L115.974 159.767L118.85 158.913L113.238 140.015L110.362 140.869ZM110.093 139.018C110.093 139.645 110.184 140.268 110.362 140.869L113.238 140.015C113.142 139.691 113.093 139.356 113.093 139.018H110.093ZM110.093 121.808V139.018H113.093V121.808H110.093ZM110.511 119.514C110.235 120.247 110.093 121.024 110.093 121.808H113.093C113.093 121.386 113.169 120.967 113.318 120.573L110.511 119.514ZM116.069 104.781L110.511 119.514L113.318 120.573L118.876 105.84L116.069 104.781ZM116.897 103.248C116.553 103.719 116.275 104.235 116.069 104.781L118.876 105.84C118.987 105.546 119.137 105.268 119.322 105.014L116.897 103.248ZM132.017 82.4939L116.897 103.248L119.322 105.014L134.441 84.2604L132.017 82.4939ZM135.768 79.9973C134.26 80.3556 132.929 81.241 132.017 82.4939L134.441 84.2604C134.933 83.5858 135.649 83.109 136.461 82.9161L135.768 79.9973ZM146.732 77.3926L135.768 79.9973L136.461 82.9161L147.425 80.3113L146.732 77.3926ZM149.423 73.9874C149.423 75.6087 148.309 77.0178 146.732 77.3926L147.425 80.3113C150.355 79.6154 152.423 76.9985 152.423 73.9874H149.423ZM149.423 73.0749V73.9874H152.423V73.0749H149.423ZM148.689 70.9302C149.165 71.5439 149.423 72.2983 149.423 73.0749H152.423C152.423 71.6327 151.943 70.2316 151.06 69.0919L148.689 70.9302ZM146.679 68.3375L148.689 70.9302L151.06 69.0919L149.049 66.4992L146.679 68.3375ZM145.141 67.3125L146.99 68.6377L148.738 66.1991L146.888 64.8738L145.141 67.3125ZM143.305 63.7391C143.305 65.1565 143.988 66.4869 145.141 67.3125L146.888 64.8738C146.522 64.6116 146.305 64.1892 146.305 63.7391H143.305ZM143.305 62.0464V63.7391H146.305V62.0464H143.305ZM146.008 59.3433C144.515 59.3433 143.305 60.5535 143.305 62.0464H146.305C146.305 62.2104 146.172 62.3433 146.008 62.3433V59.3433ZM144.997 60.488C144.921 59.8801 145.395 59.3433 146.008 59.3433V62.3433C147.199 62.3433 148.121 61.2993 147.974 60.1171L144.997 60.488ZM144.19 54.0153L144.997 60.488L147.974 60.1171L147.167 53.6443L144.19 54.0153ZM145.304 47.67C144.689 48.5952 144.424 49.629 144.299 50.6447C144.177 51.6448 144.179 52.7471 144.179 53.8298H147.179C147.179 52.6966 147.181 51.7917 147.277 51.0098C147.371 50.2434 147.543 49.7205 147.802 49.3306L145.304 47.67ZM149.994 44.878C148.841 44.878 147.785 45.444 147.064 45.9517C146.324 46.4731 145.663 47.1299 145.304 47.67L147.802 49.3306C147.906 49.1741 148.273 48.7697 148.792 48.4041C149.33 48.0248 149.763 47.878 149.994 47.878L149.994 44.878Z" fill="#F9A20E"/>
<path d="M145.843 58.5332L146.881 52.652L147.426 50.5032C147.886 48.6872 149.542 47.4423 151.415 47.5078C155.654 47.6563 162.009 47.8319 165.217 47.3959L167.548 47.0129C168.423 46.8693 169.297 47.3202 169.493 48.1845C170.199 51.2996 169.715 56.1672 169.715 58.5333C172.997 55.7656 172.997 45.4677 172.997 45.4677C176.596 42.1574 176.295 35.5029 169.364 35.6999C158.1 36.0201 149.454 40.1598 146.88 41.2353C144.307 42.3108 144.906 42.9191 144.113 47.8085C143.478 51.72 144.521 57.2253 145.843 58.5332Z" fill="#F9A20E" stroke="#B77300" stroke-width="3"/>
<path d="M140.072 83.2066L138.018 81.4946L147.807 79.1069L147.853 79.3265C148.248 81.2032 147.06 83.0482 145.188 83.4642L143.072 83.9344C142.013 84.1697 140.905 83.9009 140.072 83.2066Z" fill="#29FF82" stroke="#00D558" stroke-width="3"/>
<path d="M175.83 83.2066L177.884 81.4946L168.095 79.1069L168.048 79.3265C167.653 81.2032 168.842 83.0482 170.714 83.4642L172.83 83.9344C173.889 84.1697 174.997 83.9009 175.83 83.2066Z" fill="#29FF82" stroke="#00D558" stroke-width="3"/>
<path d="M173.173 135.404H142.383C142.383 135.404 142.24 137.301 142.037 138.517C141.834 139.733 141.345 141.631 141.345 141.631H174.557C174.557 141.631 173.789 139.733 173.519 138.517C173.249 137.301 173.173 135.404 173.173 135.404Z" fill="#F9A20E" stroke="#B77300" stroke-width="3"/>
<path d="M66 173L66 120" stroke="#F9A20E" stroke-width="3" stroke-linecap="round"/>
<path d="M98 86L98 56" stroke="#F9A20E" stroke-width="3" stroke-linecap="round"/>
<path d="M94 214L94 200" stroke="#F9A20E" stroke-width="3" stroke-linecap="round"/>
<path d="M75 56L75 42" stroke="#F9A20E" stroke-width="3" stroke-linecap="round"/>
<path d="M250 103L250 89" stroke="#F9A20E" stroke-width="3" stroke-linecap="round"/>
<path d="M220 91L220 51" stroke="#F9A20E" stroke-width="3" stroke-linecap="round"/>
<path d="M229 214L229 164" stroke="#F9A20E" stroke-width="3" stroke-linecap="round"/>
<path d="M229 155L229 139" stroke="#F9A20E" stroke-width="3" stroke-linecap="round"/>
</svg>
