<svg width="100" height="75" viewBox="0 0 100 75" fill="none" xmlns="http://www.w3.org/2000/svg">
<g clip-path="url(#clip0_4031_840)">
<path d="M55.9081 31.0203C56.304 30.672 56.6706 30.2831 57.1001 29.9799C59.8181 28.0633 63.3736 29.0229 64.8876 32.0636C66.4529 35.2013 65.2508 39.1575 62.2644 40.7046C59.6968 42.0357 56.5325 40.9633 55.2168 38.321C54.226 36.3371 54.2199 34.3671 55.0855 32.4077C55.1059 32.3429 55.119 32.276 55.1247 32.208L55.9081 31.0203Z" fill="#F9A20E"/>
<path d="M89.0908 61.3278C88.3571 61.8734 87.6892 62.5427 86.8779 62.9399C84.822 63.9469 82.6871 63.9624 80.6128 62.7536C78.362 61.4425 77.4803 59.0113 78.3265 56.6341C79.6527 52.9102 84.738 51.3629 88.094 53.6626C89.0956 54.3405 89.8308 55.3407 90.1673 56.4837C90.5038 57.6266 90.4196 58.8373 89.9299 59.8982C89.89 60.0002 89.8558 60.1046 89.8276 60.2107L89.0908 61.3278Z" fill="#F9A20E"/>
<path d="M50.7408 48.8658C51.5028 47.8143 52.54 46.9894 53.747 46.4746C56.3781 45.3558 58.9938 44.2037 61.6445 43.1309C65.4063 41.6079 69.057 42.0168 72.4188 44.4556C75.1817 46.4594 76.7084 49.2368 76.8466 52.5732C76.9767 55.7408 76.9673 58.9136 76.8923 62.0772C76.7865 66.563 72.2443 69.455 67.9389 67.8484C66.639 67.3629 65.5395 66.5816 64.7416 65.4388C63.4913 63.6517 62.0195 62.1025 60.1214 60.9669C58.615 60.0655 56.9939 59.5206 55.2931 59.1548C54.387 58.9633 53.5244 58.5915 52.7587 58.0625C51.993 57.5335 51.3407 56.8584 50.842 56.0792C50.3433 55.3 50.009 54.4332 49.8598 53.5326C49.7105 52.632 49.7495 51.7167 49.9743 50.8435C50.1503 50.1626 50.482 49.5242 50.7408 48.8658Z" fill="#F9A20E"/>
<path d="M68.2932 31.8396C69.4318 30.1935 71.0814 28.9947 73.3006 28.6659C76.7249 28.1585 79.6885 30.3728 80.268 33.8478C80.8999 37.604 78.2566 41.536 74.5405 42.3662C70.5929 43.2483 67.0441 40.4946 66.9255 36.4624C66.8791 34.8228 67.3243 33.3369 68.2932 31.8396Z" fill="#F9A20E"/>
<path d="M88.9103 47.8571C87.2308 50.1579 85.2713 51.3447 82.6596 51.3224C78.8201 51.2894 76.2542 48.0722 77.0915 44.3967C77.8814 40.9287 81.5841 38.4985 85.082 39.1534C88.3279 39.7604 90.3535 42.7135 89.628 45.8541C89.4441 46.6462 89.0809 47.3921 88.9103 47.8571Z" fill="#F9A20E"/>
</g>
<g clip-path="url(#clip1_4031_840)">
<path d="M6.15751 32.4084C6.04159 31.8939 5.87608 31.3858 5.8159 30.8635C5.43696 27.5593 7.9836 24.8991 11.3779 25.0282C14.882 25.1587 17.7776 28.1103 17.7036 31.4729C17.6408 34.3643 15.1827 36.6271 12.2331 36.515C10.0171 36.4335 8.2853 35.4944 6.98064 33.7954C6.9336 33.7464 6.88116 33.7028 6.82424 33.6652L6.15751 32.4084Z" fill="#F9A20E"/>
<path d="M48.6632 17.8172C48.7903 18.7227 49.0575 19.6297 49.0171 20.5321C48.9152 22.8191 47.9052 24.7001 45.85 25.941C43.6203 27.2878 41.0641 26.896 39.3835 25.0136C36.7512 22.0645 37.8313 16.8599 41.4584 15.0172C42.5335 14.4632 43.7637 14.2976 44.9281 14.5502C46.0925 14.8028 47.1146 15.4571 47.8108 16.3955C47.8813 16.4794 47.9565 16.5594 48.0361 16.635L48.6632 17.8172Z" fill="#F9A20E"/>
<path d="M19.3412 45.4984C18.7838 44.3255 18.557 43.0199 18.6839 41.7138C18.9634 38.8684 19.2064 36.0206 19.5357 33.18C20.0026 29.1486 22.1116 26.1408 25.8636 24.3597C28.9466 22.8957 32.116 22.8874 35.1102 24.3656C37.9524 25.77 40.7324 27.2993 43.4728 28.8818C47.3587 31.1252 47.7191 36.4978 44.2451 39.506C43.1959 40.414 41.9831 41.0044 40.5977 41.1567C38.4299 41.3972 36.3648 41.9461 34.4581 43.0675C32.9449 43.9574 31.6896 45.1188 30.5532 46.436C29.9507 47.1394 29.2109 47.7182 28.3795 48.1365C27.5482 48.5548 26.643 48.8037 25.7201 48.8678C24.7973 48.9318 23.8763 48.8097 23.0144 48.5089C22.1525 48.2081 21.3679 47.7351 20.7094 47.1192C20.1962 46.6383 19.795 46.0412 19.3412 45.4984Z" fill="#F9A20E"/>
<path d="M12.814 21.932C11.9153 20.1436 11.654 18.1213 12.4293 16.0161C13.6257 12.7677 16.9897 11.2285 20.3172 12.3859C23.9166 13.6321 26.1 17.8368 25.0471 21.4961C23.9286 25.3834 19.8107 27.1776 16.2152 25.3486C14.7541 24.6032 13.6635 23.5002 12.814 21.932Z" fill="#F9A20E"/>
<path d="M36.7549 11.5175C37.9689 14.0945 38.0711 16.3831 36.7994 18.6645C34.9297 22.0181 30.8762 22.7275 28.0521 20.2307C25.3872 17.8748 25.0297 13.4603 27.2813 10.7046C29.3701 8.14707 32.9329 7.78516 35.3412 9.92751C35.9482 10.4686 36.4287 11.1449 36.7549 11.5175Z" fill="#F9A20E"/>
</g>
<defs>
<clipPath id="clip0_4031_840">
<rect width="44.3871" height="37.4516" fill="white" transform="translate(60.4312 21) rotate(27.7381)"/>
</clipPath>
<clipPath id="clip1_4031_840">
<rect width="44.3871" height="37.4516" fill="white" transform="translate(0 20.8013) rotate(-27.9456)"/>
</clipPath>
</defs>
</svg>
