<svg width="45" height="38" viewBox="0 0 45 38" fill="none" xmlns="http://www.w3.org/2000/svg">
<g clip-path="url(#clip0_4021_823)">
<path d="M0 13.1392C0.13871 12.6303 0.230605 12.1039 0.422198 11.6143C1.63591 8.51786 5.13226 7.36128 8.0703 9.06602C11.1046 10.8235 12.2793 14.7878 10.6382 17.7236C9.22766 20.2485 5.99573 21.0955 3.4426 19.6142C1.52321 18.5036 0.433468 16.8625 0.0771573 14.7502C0.0585319 14.6849 0.032663 14.6218 0 14.5619L0 13.1392Z" fill="#F9A20E"/>
<path d="M44.3871 20.169C44.075 21.0285 43.8861 21.9549 43.4274 22.7332C42.2658 24.7058 40.492 25.8942 38.0949 26.0272C35.4941 26.172 33.4195 24.628 32.817 22.1776C31.8738 18.3387 35.267 14.2472 39.3346 14.3192C40.544 14.3335 41.7084 14.7638 42.6186 15.5326C43.5288 16.3014 44.1252 17.3584 44.3005 18.5137C44.3233 18.6208 44.3523 18.7267 44.3871 18.8308V20.169Z" fill="#F9A20E"/>
<path d="M5.51196 30.8812C5.56918 29.5838 5.98073 28.3242 6.70487 27.2299C8.28529 24.8472 9.8345 22.4454 11.4565 20.0904C13.7582 16.7478 17.0309 15.0791 21.1801 15.264C24.5897 15.4155 27.3934 16.8934 29.3457 19.6024C31.1984 22.175 32.9375 24.8288 34.6167 27.511C36.9982 31.3139 34.7988 36.2289 30.3202 37.2583C28.9678 37.5688 27.6197 37.5219 26.3245 37.0072C24.2967 36.2038 22.2152 35.7209 20.0054 35.818C18.2516 35.895 16.5983 36.3327 14.9772 36.9637C14.1153 37.3028 13.1905 37.4674 12.2601 37.4473C11.3296 37.4273 10.4134 37.2229 9.56808 36.847C8.72279 36.4711 7.96647 35.9316 7.34601 35.262C6.72554 34.5924 6.25415 33.8069 5.96104 32.9542C5.73303 32.2888 5.65847 31.5733 5.51196 30.8812Z" fill="#F9A20E"/>
<path d="M10.7898 7.00393C10.834 5.00293 11.551 3.09399 13.2224 1.59763C15.8015 -0.711343 19.4947 -0.494589 21.8918 2.08721C24.4874 4.87489 24.4458 9.61252 21.8007 12.3517C18.991 15.2615 14.5124 14.9167 12.1934 11.616C11.2519 10.2728 10.8054 8.78734 10.7898 7.00393Z" fill="#F9A20E"/>
<path d="M36.8197 9.02333C36.6844 11.8688 35.7022 13.9384 33.5097 15.3577C30.2864 17.4441 26.3731 16.1712 25.0484 12.642C23.7983 9.31205 25.5512 5.24477 28.8317 3.86558C31.8755 2.58514 35.1924 3.93504 36.316 6.95621C36.5986 7.71862 36.7061 8.54128 36.8197 9.02333Z" fill="#F9A20E"/>
</g>
<defs>
<clipPath id="clip0_4021_823">
<rect width="44.3871" height="37.4516" fill="white"/>
</clipPath>
</defs>
</svg>
